<mxGraphModel dx="0" dy="0" grid="1" gridSize="10" guides="1" tooltips="1" connect="1" arrows="1" fold="1" page="0" pageScale="1" background="none" math="0" shadow="0">
  <root>
    <mxCell id="0" />
    <mxCell id="1" parent="0" />
    <mxCell id="node7" parent="1" vertex="1" value="&lt;p style=&quot;margin:0px;margin-top:4px;text-align:center;&quot;&gt;&lt;b&gt;dbt_metrics_default_calendar&lt;/b&gt;&lt;/p&gt;&lt;hr size=&quot;1&quot;/&gt;&lt;p style=&quot;margin:0 0 0 4px;line-height:1.6;&quot;&gt; date_day: date&lt;br/&gt; date_week: date&lt;br/&gt; date_month: date&lt;br/&gt; date_quarter: date&lt;br/&gt; date_year: date&lt;/p&gt;" style="verticalAlign=top;align=left;overflow=fill;fontSize=14;fontFamily=Helvetica;html=1;rounded=0;shadow=0;comic=0;labelBackgroundColor=none;strokeWidth=1;">
      <mxGeometry x="673" y="990" width="278" height="159" as="geometry" />
    </mxCell>
    <mxCell id="node3" parent="1" vertex="1" value="&lt;p style=&quot;margin:0px;margin-top:4px;text-align:center;&quot;&gt;&lt;b&gt;dim_date&lt;/b&gt;&lt;/p&gt;&lt;hr size=&quot;1&quot;/&gt;&lt;p style=&quot;margin:0 0 0 4px;line-height:1.6;&quot;&gt; date_id: integer&lt;br/&gt; date: text&lt;br/&gt; earliest_time: text&lt;br/&gt; latest_time: text&lt;br/&gt; au_format_date: text&lt;br/&gt; us_format_date: text&lt;br/&gt; year_number: integer&lt;br/&gt; year_week_number: integer&lt;br/&gt; year_day_number: integer&lt;br/&gt; au_fiscal_year_number: integer&lt;br/&gt; us_fiscal_year_number: integer&lt;br/&gt; first_day_of_year: text&lt;br/&gt; last_day_of_year: text&lt;br/&gt; qtr_number: integer&lt;br/&gt; au_fiscal_qtr_number: integer&lt;br/&gt; us_fiscal_qtr_number: integer&lt;br/&gt; first_day_of_quarter: text&lt;br/&gt; last_day_of_quarter: text&lt;br/&gt; month_number: integer&lt;br/&gt; month_name: text&lt;br/&gt; month_day_number: integer&lt;br/&gt; first_day_of_month: text&lt;br/&gt; last_day_of_month: text&lt;br/&gt; week_day_number: integer&lt;br/&gt; first_day_of_week: text&lt;br/&gt; last_day_of_week: text&lt;br/&gt; day_name: text&lt;br/&gt; is_weekday: integer&lt;br/&gt; is_eom: integer&lt;br/&gt; year_name: integer&lt;br/&gt; quater_year_name: text&lt;br/&gt; month_year_name: text&lt;br/&gt; week_year_name: text&lt;br/&gt; is_holiday: text&lt;br/&gt; is_eom_trading: integer&lt;/p&gt;" style="verticalAlign=top;align=left;overflow=fill;fontSize=14;fontFamily=Helvetica;html=1;rounded=0;shadow=0;comic=0;labelBackgroundColor=none;strokeWidth=1;">
      <mxGeometry x="-321" y="421" width="234" height="879" as="geometry" />
    </mxCell>
    <mxCell id="node1" parent="1" vertex="1" value="&lt;p style=&quot;margin:0px;margin-top:4px;text-align:center;&quot;&gt;&lt;b&gt;fact_accounts&lt;/b&gt;&lt;/p&gt;&lt;hr size=&quot;1&quot;/&gt;&lt;p style=&quot;margin:0 0 0 4px;line-height:1.6;&quot;&gt; account_id: text&lt;br/&gt; customer_id: text&lt;br/&gt; account_number: text&lt;br/&gt; account_type: text&lt;br/&gt; pin: text&lt;br/&gt; cvv: bigint&lt;br/&gt; opened_date: date&lt;br/&gt; closed_date: text&lt;br/&gt; account_status: text&lt;br/&gt; branch_id: text&lt;br/&gt; full_name: text&lt;br/&gt; age: integer&lt;br/&gt; gender: text&lt;br/&gt; customer_register_date: date&lt;br/&gt; branch_province: text&lt;br/&gt; branch_name: text&lt;/p&gt;" style="verticalAlign=top;align=left;overflow=fill;fontSize=14;fontFamily=Helvetica;html=1;rounded=0;shadow=0;comic=0;labelBackgroundColor=none;strokeWidth=1;">
      <mxGeometry x="673" y="457" width="225" height="423" as="geometry" />
    </mxCell>
    <mxCell id="node6" parent="1" vertex="1" value="&lt;p style=&quot;margin:0px;margin-top:4px;text-align:center;&quot;&gt;&lt;b&gt;fact_accounts_savings&lt;/b&gt;&lt;/p&gt;&lt;hr size=&quot;1&quot;/&gt;&lt;p style=&quot;margin:0 0 0 4px;line-height:1.6;&quot;&gt; txn_date: date&lt;br/&gt; transaction_amount: double precision&lt;/p&gt;" style="verticalAlign=top;align=left;overflow=fill;fontSize=14;fontFamily=Helvetica;html=1;rounded=0;shadow=0;comic=0;labelBackgroundColor=none;strokeWidth=1;">
      <mxGeometry x="674" y="1213" width="276" height="94" as="geometry" />
    </mxCell>
    <mxCell id="node0" parent="1" vertex="1" value="&lt;p style=&quot;margin:0px;margin-top:4px;text-align:center;&quot;&gt;&lt;b&gt;fact_customers&lt;/b&gt;&lt;/p&gt;&lt;hr size=&quot;1&quot;/&gt;&lt;p style=&quot;margin:0 0 0 4px;line-height:1.6;&quot;&gt; customer_id: text&lt;br/&gt; identity_id: text&lt;br/&gt; last_name: text&lt;br/&gt; first_name: text&lt;br/&gt; full_name: text&lt;br/&gt; date_of_birth: text&lt;br/&gt; age: integer&lt;br/&gt; gender: text&lt;br/&gt; address: text&lt;br/&gt; status: text&lt;br/&gt; hometown: text&lt;br/&gt; phone: text&lt;br/&gt; email: text&lt;br/&gt; customer_register_date: date&lt;br/&gt; customer_type: text&lt;br/&gt; first_loan_date: date&lt;br/&gt; loan_count: bigint&lt;br/&gt; origin_principal: double precision&lt;br/&gt; total_interest: numeric&lt;br/&gt; paid_interest: numeric&lt;br/&gt; unpaid_loan_amount: double precision&lt;br/&gt; unpaid_loan_count: bigint&lt;br/&gt; first_savings_date: date&lt;br/&gt; savings_count: bigint&lt;br/&gt; origin_deposit_amount: double precision&lt;br/&gt; matured_deposit_amount: double precision&lt;br/&gt; customer_segment: text&lt;br/&gt; nav: bigint&lt;br/&gt; total_balance: bigint&lt;br/&gt; deposit: bigint&lt;br/&gt; withdraw: bigint&lt;/p&gt;" style="verticalAlign=top;align=left;overflow=fill;fontSize=14;fontFamily=Helvetica;html=1;rounded=0;shadow=0;comic=0;labelBackgroundColor=none;strokeWidth=1;">
      <mxGeometry x="307" y="421" width="312" height="783" as="geometry" />
    </mxCell>
    <mxCell id="node5" parent="1" vertex="1" value="&lt;p style=&quot;margin:0px;margin-top:4px;text-align:center;&quot;&gt;&lt;b&gt;fact_loans&lt;/b&gt;&lt;/p&gt;&lt;hr size=&quot;1&quot;/&gt;&lt;p style=&quot;margin:0 0 0 4px;line-height:1.6;&quot;&gt; customer_id: text&lt;br/&gt; loan_id: text&lt;br/&gt; loan_service: text&lt;br/&gt; loan_type: text&lt;br/&gt; loan_amount: double precision&lt;br/&gt; interest_rate: double precision&lt;br/&gt; term: integer&lt;br/&gt; created_date: date&lt;br/&gt; start_date: date&lt;br/&gt; end_date: text&lt;br/&gt; status: text&lt;br/&gt; due_principal: numeric&lt;br/&gt; due_interest: numeric&lt;br/&gt; paid_principal: numeric&lt;br/&gt; paid_interest: numeric&lt;br/&gt; undue_principal: numeric&lt;br/&gt; undue_interest: numeric&lt;br/&gt; overdue_principal: numeric&lt;br/&gt; overdue_interest: numeric&lt;br/&gt; to_collect_principal: numeric&lt;br/&gt; to_collect_interest: numeric&lt;br/&gt; interest_on_overdue_loan: numeric&lt;br/&gt; unpaid_principal: numeric&lt;br/&gt; unpaid_interest: numeric&lt;br/&gt; description: text&lt;br/&gt; created_time: date&lt;br/&gt; release_time: text&lt;br/&gt; overdue_date: date&lt;br/&gt; disbursement_date: text&lt;br/&gt; modified_time: text&lt;/p&gt;" style="verticalAlign=top;align=left;overflow=fill;fontSize=14;fontFamily=Helvetica;html=1;rounded=0;shadow=0;comic=0;labelBackgroundColor=none;strokeWidth=1;">
      <mxGeometry x="-7" y="433" width="261" height="759" as="geometry" />
    </mxCell>
    <mxCell id="node2" parent="1" vertex="1" value="&lt;p style=&quot;margin:0px;margin-top:4px;text-align:center;&quot;&gt;&lt;b&gt;fact_period_customers_daily&lt;/b&gt;&lt;/p&gt;&lt;hr size=&quot;1&quot;/&gt;&lt;p style=&quot;margin:0 0 0 4px;line-height:1.6;&quot;&gt; unique_id: text&lt;br/&gt; gen_date: date&lt;br/&gt; customer_id: text&lt;br/&gt; nav: bigint&lt;br/&gt; total_balance: bigint&lt;br/&gt; deposit: bigint&lt;br/&gt; withdraw: bigint&lt;br/&gt; total_loan: bigint&lt;br/&gt; new_loan: bigint&lt;br/&gt; total_saving: bigint&lt;br/&gt; new_saving: bigint&lt;br/&gt; customer_segment: text&lt;br/&gt; is_recommended_loan: integer&lt;br/&gt; recommended_loan_type: text&lt;br/&gt; is_recommended_savings: integer&lt;br/&gt; is_recommended_credit_card: integer&lt;br/&gt; recommended_credit_card_type: text&lt;br/&gt; full_name: text&lt;br/&gt; date_of_birth: text&lt;br/&gt; gender: text&lt;br/&gt; customer_register_date: date&lt;br/&gt; customer_type: text&lt;/p&gt;" style="verticalAlign=top;align=left;overflow=fill;fontSize=14;fontFamily=Helvetica;html=1;rounded=0;shadow=0;comic=0;labelBackgroundColor=none;strokeWidth=1;">
      <mxGeometry x="-680" y="421" width="279" height="567" as="geometry" />
    </mxCell>
    <mxCell id="node4" parent="1" vertex="1" value="&lt;p style=&quot;margin:0px;margin-top:4px;text-align:center;&quot;&gt;&lt;b&gt;fact_savings_accounts&lt;/b&gt;&lt;/p&gt;&lt;hr size=&quot;1&quot;/&gt;&lt;p style=&quot;margin:0 0 0 4px;line-height:1.6;&quot;&gt; savings_id: text&lt;br/&gt; product_id: text&lt;br/&gt; product_name: text&lt;br/&gt; interest_rate: numeric&lt;br/&gt; promotion: text&lt;br/&gt; customer_id: text&lt;br/&gt; account_id: text&lt;br/&gt; account_number: text&lt;br/&gt; deposit_amount: double precision&lt;br/&gt; opening_date: date&lt;br/&gt; maturity_date: date&lt;br/&gt; status: text&lt;br/&gt; created_at: timestamp&lt;br/&gt; updated_at: text&lt;/p&gt;" style="verticalAlign=top;align=left;overflow=fill;fontSize=14;fontFamily=Helvetica;html=1;rounded=0;shadow=0;comic=0;labelBackgroundColor=none;strokeWidth=1;">
      <mxGeometry x="1004" y="457" width="249" height="375" as="geometry" />
    </mxCell>
  </root>
</mxGraphModel>